<mxfile>
    <diagram id="bFDk07U98qY8neNTBVp-" name="Page-1">
        <mxGraphModel dx="1096" dy="372" grid="1" gridSize="10" guides="1" tooltips="1" connect="1" arrows="1" fold="1" page="1" pageScale="1" pageWidth="827" pageHeight="1169" math="0" shadow="0">
            <root>
                <mxCell id="0"/>
                <mxCell id="1" parent="0"/>
                <mxCell id="PJulE_w-saJkIU31V3cU-42" value="" style="rounded=0;whiteSpace=wrap;html=1;dashed=1;strokeWidth=1;fillColor=none;" parent="1" vertex="1">
                    <mxGeometry x="330" y="50" width="310" height="140" as="geometry"/>
                </mxCell>
                <mxCell id="PJulE_w-saJkIU31V3cU-40" value="" style="rounded=0;whiteSpace=wrap;html=1;strokeWidth=1;fillColor=none;dashed=1;" parent="1" vertex="1">
                    <mxGeometry x="560" y="230" width="380" height="300" as="geometry"/>
                </mxCell>
                <mxCell id="PJulE_w-saJkIU31V3cU-32" style="edgeStyle=orthogonalEdgeStyle;rounded=0;orthogonalLoop=1;jettySize=auto;html=1;exitX=0;exitY=0;exitDx=120;exitDy=50;exitPerimeter=0;entryX=0.5;entryY=1;entryDx=0;entryDy=0;strokeWidth=2;fillColor=#fff2cc;strokeColor=#d6b656;" parent="1" source="PJulE_w-saJkIU31V3cU-11" target="PJulE_w-saJkIU31V3cU-31" edge="1">
                    <mxGeometry relative="1" as="geometry"/>
                </mxCell>
                <mxCell id="PJulE_w-saJkIU31V3cU-11" value="Station" style="shape=cube;whiteSpace=wrap;html=1;boundedLbl=1;backgroundOutline=1;darkOpacity=0.05;darkOpacity2=0.1;strokeWidth=1;fillColor=#fff2cc;size=20;strokeColor=#d6b656;" parent="1" vertex="1">
                    <mxGeometry x="580" y="270" width="120" height="80" as="geometry"/>
                </mxCell>
                <mxCell id="PJulE_w-saJkIU31V3cU-36" style="edgeStyle=orthogonalEdgeStyle;rounded=0;orthogonalLoop=1;jettySize=auto;html=1;entryX=0.5;entryY=1;entryDx=0;entryDy=0;strokeWidth=2;fillColor=#d5e8d4;strokeColor=#82b366;" parent="1" source="PJulE_w-saJkIU31V3cU-19" target="PJulE_w-saJkIU31V3cU-35" edge="1">
                    <mxGeometry relative="1" as="geometry"/>
                </mxCell>
                <mxCell id="PJulE_w-saJkIU31V3cU-19" value="Slot" style="shape=cube;whiteSpace=wrap;html=1;boundedLbl=1;backgroundOutline=1;darkOpacity=0.05;darkOpacity2=0.1;strokeWidth=1;fillColor=#d5e8d4;size=20;strokeColor=#82b366;" parent="1" vertex="1">
                    <mxGeometry x="350" y="270" width="120" height="80" as="geometry"/>
                </mxCell>
                <mxCell id="PJulE_w-saJkIU31V3cU-20" value="Monitor" style="shape=cube;whiteSpace=wrap;html=1;boundedLbl=1;backgroundOutline=1;darkOpacity=0.05;darkOpacity2=0.1;strokeWidth=1;fillColor=#fff2cc;size=20;strokeColor=#d6b656;" parent="1" vertex="1">
                    <mxGeometry x="350" y="80" width="120" height="80" as="geometry"/>
                </mxCell>
                <mxCell id="PJulE_w-saJkIU31V3cU-21" value="" style="endArrow=classic;html=1;entryX=0;entryY=0;entryDx=0;entryDy=30;entryPerimeter=0;fillColor=#d5e8d4;strokeColor=#82b366;strokeWidth=2;startArrow=none;startFill=0;" parent="1" target="PJulE_w-saJkIU31V3cU-11" edge="1">
                    <mxGeometry width="50" height="50" relative="1" as="geometry">
                        <mxPoint x="471" y="300" as="sourcePoint"/>
                        <mxPoint x="560" y="270" as="targetPoint"/>
                    </mxGeometry>
                </mxCell>
                <mxCell id="PJulE_w-saJkIU31V3cU-23" value="&lt;div&gt;MR&lt;/div&gt;" style="edgeLabel;html=1;align=center;verticalAlign=middle;resizable=0;points=[];" parent="PJulE_w-saJkIU31V3cU-21" vertex="1" connectable="0">
                    <mxGeometry x="0.2157" y="1" relative="1" as="geometry">
                        <mxPoint as="offset"/>
                    </mxGeometry>
                </mxCell>
                <mxCell id="PJulE_w-saJkIU31V3cU-22" value="" style="endArrow=classic;html=1;fillColor=#d5e8d4;strokeColor=#82b366;strokeWidth=2;" parent="1" edge="1">
                    <mxGeometry width="50" height="50" relative="1" as="geometry">
                        <mxPoint x="580" y="320" as="sourcePoint"/>
                        <mxPoint x="472" y="320" as="targetPoint"/>
                    </mxGeometry>
                </mxCell>
                <mxCell id="PJulE_w-saJkIU31V3cU-24" value="&lt;div&gt;MW&lt;/div&gt;" style="edgeLabel;html=1;align=center;verticalAlign=middle;resizable=0;points=[];" parent="PJulE_w-saJkIU31V3cU-22" vertex="1" connectable="0">
                    <mxGeometry x="0.083" relative="1" as="geometry">
                        <mxPoint as="offset"/>
                    </mxGeometry>
                </mxCell>
                <mxCell id="PJulE_w-saJkIU31V3cU-25" value="" style="endArrow=classic;html=1;entryX=0.42;entryY=1.048;entryDx=0;entryDy=0;entryPerimeter=0;fillColor=#d5e8d4;strokeColor=#82b366;strokeWidth=2;exitX=0;exitY=0;exitDx=50;exitDy=0;exitPerimeter=0;" parent="1" source="PJulE_w-saJkIU31V3cU-19" target="PJulE_w-saJkIU31V3cU-20" edge="1">
                    <mxGeometry width="50" height="50" relative="1" as="geometry">
                        <mxPoint x="339" y="200" as="sourcePoint"/>
                        <mxPoint x="488" y="200" as="targetPoint"/>
                    </mxGeometry>
                </mxCell>
                <mxCell id="PJulE_w-saJkIU31V3cU-26" value="&lt;div&gt;MR&lt;/div&gt;" style="edgeLabel;html=1;align=center;verticalAlign=middle;resizable=0;points=[];" parent="PJulE_w-saJkIU31V3cU-25" vertex="1" connectable="0">
                    <mxGeometry x="0.2157" y="1" relative="1" as="geometry">
                        <mxPoint as="offset"/>
                    </mxGeometry>
                </mxCell>
                <mxCell id="PJulE_w-saJkIU31V3cU-27" value="" style="endArrow=classic;html=1;fillColor=#d5e8d4;strokeColor=#82b366;strokeWidth=2;entryX=0.582;entryY=-0.02;entryDx=0;entryDy=0;entryPerimeter=0;exitX=0;exitY=0;exitDx=70;exitDy=80;exitPerimeter=0;" parent="1" source="PJulE_w-saJkIU31V3cU-20" target="PJulE_w-saJkIU31V3cU-19" edge="1">
                    <mxGeometry width="50" height="50" relative="1" as="geometry">
                        <mxPoint x="488" y="210.28846153846155" as="sourcePoint"/>
                        <mxPoint x="340" y="211" as="targetPoint"/>
                    </mxGeometry>
                </mxCell>
                <mxCell id="PJulE_w-saJkIU31V3cU-28" value="&lt;div&gt;MW&lt;/div&gt;" style="edgeLabel;html=1;align=center;verticalAlign=middle;resizable=0;points=[];" parent="PJulE_w-saJkIU31V3cU-27" vertex="1" connectable="0">
                    <mxGeometry x="0.083" relative="1" as="geometry">
                        <mxPoint as="offset"/>
                    </mxGeometry>
                </mxCell>
                <mxCell id="PJulE_w-saJkIU31V3cU-29" value="Read Config" style="shape=note;whiteSpace=wrap;html=1;backgroundOutline=1;darkOpacity=0.05;strokeWidth=1;fillColor=#d5e8d4;strokeColor=#82b366;size=16;" parent="1" vertex="1">
                    <mxGeometry x="590" y="440" width="80" height="50" as="geometry"/>
                </mxCell>
                <mxCell id="PJulE_w-saJkIU31V3cU-30" value="Write Config" style="shape=note;whiteSpace=wrap;html=1;backgroundOutline=1;darkOpacity=0.05;strokeWidth=1;fillColor=#d5e8d4;strokeColor=#82b366;size=16;" parent="1" vertex="1">
                    <mxGeometry x="590" y="370" width="80" height="50" as="geometry"/>
                </mxCell>
                <mxCell id="PJulE_w-saJkIU31V3cU-31" value="LCD" style="rounded=0;whiteSpace=wrap;html=1;strokeWidth=1;fillColor=#fff2cc;strokeColor=#d6b656;" parent="1" vertex="1">
                    <mxGeometry x="810" y="240" width="80" height="50" as="geometry"/>
                </mxCell>
                <mxCell id="PJulE_w-saJkIU31V3cU-35" value="LCD" style="rounded=0;whiteSpace=wrap;html=1;strokeWidth=1;fillColor=#d5e8d4;strokeColor=#82b366;" parent="1" vertex="1">
                    <mxGeometry x="230" y="240" width="80" height="50" as="geometry"/>
                </mxCell>
                <mxCell id="PJulE_w-saJkIU31V3cU-41" value="" style="rounded=0;whiteSpace=wrap;html=1;dashed=1;strokeWidth=1;fillColor=none;" parent="1" vertex="1">
                    <mxGeometry x="200" y="230" width="290" height="300" as="geometry"/>
                </mxCell>
                <mxCell id="PJulE_w-saJkIU31V3cU-45" value="Slot Logik" style="shape=note;whiteSpace=wrap;html=1;backgroundOutline=1;darkOpacity=0.05;strokeWidth=1;fillColor=#d5e8d4;strokeColor=#82b366;size=16;" parent="1" vertex="1">
                    <mxGeometry x="230" y="840" width="80" height="50" as="geometry"/>
                </mxCell>
                <mxCell id="PJulE_w-saJkIU31V3cU-46" value="Station Logik" style="shape=note;whiteSpace=wrap;html=1;backgroundOutline=1;darkOpacity=0.05;strokeWidth=1;fillColor=#fff2cc;strokeColor=#d6b656;size=16;" parent="1" vertex="1">
                    <mxGeometry x="690" y="370" width="80" height="50" as="geometry"/>
                </mxCell>
                <mxCell id="PJulE_w-saJkIU31V3cU-47" value="&lt;div&gt;I2C Lib&lt;/div&gt;" style="shape=note;whiteSpace=wrap;html=1;backgroundOutline=1;darkOpacity=0.05;strokeWidth=1;fillColor=#fff2cc;strokeColor=#d6b656;size=16;" parent="1" vertex="1">
                    <mxGeometry x="690" y="440" width="80" height="50" as="geometry"/>
                </mxCell>
                <mxCell id="PJulE_w-saJkIU31V3cU-48" value="" style="rounded=0;whiteSpace=wrap;html=1;dashed=1;strokeWidth=1;fillColor=none;" parent="1" vertex="1">
                    <mxGeometry x="1000" y="30" width="600" height="500" as="geometry"/>
                </mxCell>
                <mxCell id="PJulE_w-saJkIU31V3cU-50" value="Station/Monitor" style="shape=cube;whiteSpace=wrap;html=1;boundedLbl=1;backgroundOutline=1;darkOpacity=0.05;darkOpacity2=0.1;strokeWidth=1;fillColor=#fff2cc;size=20;strokeColor=#d6b656;" parent="1" vertex="1">
                    <mxGeometry x="1040" y="80" width="120" height="80" as="geometry"/>
                </mxCell>
                <mxCell id="PJulE_w-saJkIU31V3cU-51" value="Slot" style="shape=cube;whiteSpace=wrap;html=1;boundedLbl=1;backgroundOutline=1;darkOpacity=0.05;darkOpacity2=0.1;strokeWidth=1;fillColor=#fff2cc;size=20;strokeColor=#d6b656;" parent="1" vertex="1">
                    <mxGeometry x="1040" y="240" width="120" height="80" as="geometry"/>
                </mxCell>
                <mxCell id="PJulE_w-saJkIU31V3cU-52" value="System" style="shape=cube;whiteSpace=wrap;html=1;boundedLbl=1;backgroundOutline=1;darkOpacity=0.05;darkOpacity2=0.1;strokeWidth=1;fillColor=#fff2cc;size=20;strokeColor=#d6b656;" parent="1" vertex="1">
                    <mxGeometry x="1040" y="400" width="120" height="80" as="geometry"/>
                </mxCell>
                <mxCell id="PJulE_w-saJkIU31V3cU-53" value="Löten" style="shape=note;whiteSpace=wrap;html=1;backgroundOutline=1;darkOpacity=0.05;strokeWidth=1;fillColor=#fff2cc;strokeColor=#d6b656;size=16;" parent="1" vertex="1">
                    <mxGeometry x="1180" y="95" width="80" height="50" as="geometry"/>
                </mxCell>
                <mxCell id="PJulE_w-saJkIU31V3cU-54" value="Löten" style="shape=note;whiteSpace=wrap;html=1;backgroundOutline=1;darkOpacity=0.05;strokeWidth=1;fillColor=#fff2cc;strokeColor=#d6b656;size=16;" parent="1" vertex="1">
                    <mxGeometry x="1180" y="255" width="80" height="50" as="geometry"/>
                </mxCell>
                <mxCell id="PJulE_w-saJkIU31V3cU-55" value="Kontakte fertig machen " style="shape=note;whiteSpace=wrap;html=1;backgroundOutline=1;darkOpacity=0.05;strokeWidth=1;fillColor=#fff2cc;strokeColor=#d6b656;size=16;" parent="1" vertex="1">
                    <mxGeometry x="1175" y="400" width="90" height="70" as="geometry"/>
                </mxCell>
                <mxCell id="PJulE_w-saJkIU31V3cU-56" value="Board anschrauben" style="shape=note;whiteSpace=wrap;html=1;backgroundOutline=1;darkOpacity=0.05;strokeWidth=1;fillColor=#fff2cc;strokeColor=#d6b656;size=16;" parent="1" vertex="1">
                    <mxGeometry x="1280" y="400" width="80" height="50" as="geometry"/>
                </mxCell>
                <mxCell id="bDiY2DhebX05T9cjeJEo-4" value="" style="rounded=0;whiteSpace=wrap;html=1;fillColor=none;dashed=1;" parent="1" vertex="1">
                    <mxGeometry x="560" y="560" width="100" height="160" as="geometry"/>
                </mxCell>
                <mxCell id="bDiY2DhebX05T9cjeJEo-8" value="Send bytes" style="shape=note;whiteSpace=wrap;html=1;backgroundOutline=1;darkOpacity=0.05;strokeWidth=1;fillColor=#d5e8d4;strokeColor=#82b366;size=16;" parent="1" vertex="1">
                    <mxGeometry x="570" y="600" width="80" height="50" as="geometry"/>
                </mxCell>
                <mxCell id="bDiY2DhebX05T9cjeJEo-9" value="read bytes" style="shape=note;whiteSpace=wrap;html=1;backgroundOutline=1;darkOpacity=0.05;strokeWidth=1;fillColor=#d5e8d4;strokeColor=#82b366;size=16;" parent="1" vertex="1">
                    <mxGeometry x="570" y="660" width="80" height="50" as="geometry"/>
                </mxCell>
                <mxCell id="bDiY2DhebX05T9cjeJEo-11" value="" style="rounded=0;whiteSpace=wrap;html=1;fillColor=none;dashed=1;" parent="1" vertex="1">
                    <mxGeometry x="680" y="560" width="100" height="160" as="geometry"/>
                </mxCell>
                <mxCell id="bDiY2DhebX05T9cjeJEo-12" value="Input/Output config" style="shape=note;whiteSpace=wrap;html=1;backgroundOutline=1;darkOpacity=0.05;strokeWidth=1;fillColor=#fff2cc;strokeColor=#d6b656;size=16;" parent="1" vertex="1">
                    <mxGeometry x="690" y="600" width="80" height="50" as="geometry"/>
                </mxCell>
                <mxCell id="bDiY2DhebX05T9cjeJEo-13" value="digital read/write" style="shape=note;whiteSpace=wrap;html=1;backgroundOutline=1;darkOpacity=0.05;strokeWidth=1;fillColor=#fff2cc;strokeColor=#d6b656;size=16;" parent="1" vertex="1">
                    <mxGeometry x="690" y="660" width="80" height="50" as="geometry"/>
                </mxCell>
                <mxCell id="bDiY2DhebX05T9cjeJEo-14" value="" style="rounded=0;whiteSpace=wrap;html=1;fillColor=none;dashed=1;" parent="1" vertex="1">
                    <mxGeometry x="800" y="560" width="100" height="160" as="geometry"/>
                </mxCell>
                <mxCell id="bDiY2DhebX05T9cjeJEo-15" value="Init LCD" style="shape=note;whiteSpace=wrap;html=1;backgroundOutline=1;darkOpacity=0.05;strokeWidth=1;fillColor=#fff2cc;strokeColor=#d6b656;size=16;" parent="1" vertex="1">
                    <mxGeometry x="810" y="600" width="80" height="50" as="geometry"/>
                </mxCell>
                <mxCell id="bDiY2DhebX05T9cjeJEo-16" value="Write LCD" style="shape=note;whiteSpace=wrap;html=1;backgroundOutline=1;darkOpacity=0.05;strokeWidth=1;fillColor=#fff2cc;strokeColor=#d6b656;size=16;" parent="1" vertex="1">
                    <mxGeometry x="810" y="660" width="80" height="50" as="geometry"/>
                </mxCell>
                <mxCell id="bDiY2DhebX05T9cjeJEo-17" value="I2C" style="text;html=1;strokeColor=none;fillColor=none;align=center;verticalAlign=middle;whiteSpace=wrap;rounded=0;dashed=1;fontSize=18;" parent="1" vertex="1">
                    <mxGeometry x="590" y="565" width="40" height="20" as="geometry"/>
                </mxCell>
                <mxCell id="bDiY2DhebX05T9cjeJEo-18" value="Hardware" style="text;html=1;strokeColor=none;fillColor=none;align=center;verticalAlign=middle;whiteSpace=wrap;rounded=0;dashed=1;fontSize=18;" parent="1" vertex="1">
                    <mxGeometry x="710" y="565" width="40" height="20" as="geometry"/>
                </mxCell>
                <mxCell id="bDiY2DhebX05T9cjeJEo-19" value="&lt;font style=&quot;font-size: 18px&quot;&gt;LCD&lt;/font&gt;" style="text;html=1;strokeColor=none;fillColor=none;align=center;verticalAlign=middle;whiteSpace=wrap;rounded=0;dashed=1;" parent="1" vertex="1">
                    <mxGeometry x="827" y="565" width="40" height="20" as="geometry"/>
                </mxCell>
                <mxCell id="12" value="Utility" style="swimlane;fontStyle=1;align=center;verticalAlign=top;childLayout=stackLayout;horizontal=1;startSize=26;horizontalStack=0;resizeParent=1;resizeParentMax=0;resizeLast=0;collapsible=1;marginBottom=0;" parent="1" vertex="1">
                    <mxGeometry x="920" y="560" width="240" height="138" as="geometry">
                        <mxRectangle x="930" y="540" width="100" height="26" as="alternateBounds"/>
                    </mxGeometry>
                </mxCell>
                <mxCell id="14" value="" style="line;strokeWidth=1;fillColor=none;align=left;verticalAlign=middle;spacingTop=-1;spacingLeft=3;spacingRight=3;rotatable=0;labelPosition=right;points=[];portConstraint=eastwest;" parent="12" vertex="1">
                    <mxGeometry y="26" width="240" height="8" as="geometry"/>
                </mxCell>
                <mxCell id="15" value="+ writeConfig(int config[])" style="text;strokeColor=none;fillColor=none;align=left;verticalAlign=top;spacingLeft=4;spacingRight=4;overflow=hidden;rotatable=0;points=[[0,0.5],[1,0.5]];portConstraint=eastwest;" parent="12" vertex="1">
                    <mxGeometry y="34" width="240" height="26" as="geometry"/>
                </mxCell>
                <mxCell id="17" value="+ readConfig(): int config[]" style="text;strokeColor=none;fillColor=none;align=left;verticalAlign=top;spacingLeft=4;spacingRight=4;overflow=hidden;rotatable=0;points=[[0,0.5],[1,0.5]];portConstraint=eastwest;" parent="12" vertex="1">
                    <mxGeometry y="60" width="240" height="26" as="geometry"/>
                </mxCell>
                <mxCell id="18" value="+ readPin(int pinNumber): bool" style="text;strokeColor=none;fillColor=none;align=left;verticalAlign=top;spacingLeft=4;spacingRight=4;overflow=hidden;rotatable=0;points=[[0,0.5],[1,0.5]];portConstraint=eastwest;" parent="12" vertex="1">
                    <mxGeometry y="86" width="240" height="26" as="geometry"/>
                </mxCell>
                <mxCell id="19" value="+ writePin(int pinNumber, bool high)" style="text;strokeColor=none;fillColor=none;align=left;verticalAlign=top;spacingLeft=4;spacingRight=4;overflow=hidden;rotatable=0;points=[[0,0.5],[1,0.5]];portConstraint=eastwest;" parent="12" vertex="1">
                    <mxGeometry y="112" width="240" height="26" as="geometry"/>
                </mxCell>
                <mxCell id="20" value="LCD" style="swimlane;fontStyle=1;align=center;verticalAlign=top;childLayout=stackLayout;horizontal=1;startSize=26;horizontalStack=0;resizeParent=1;resizeParentMax=0;resizeLast=0;collapsible=1;marginBottom=0;" parent="1" vertex="1">
                    <mxGeometry x="920" y="710" width="240" height="164" as="geometry">
                        <mxRectangle x="930" y="540" width="100" height="26" as="alternateBounds"/>
                    </mxGeometry>
                </mxCell>
                <mxCell id="22" value="+ int adress" style="text;strokeColor=none;fillColor=none;align=left;verticalAlign=top;spacingLeft=4;spacingRight=4;overflow=hidden;rotatable=0;points=[[0,0.5],[1,0.5]];portConstraint=eastwest;" parent="20" vertex="1">
                    <mxGeometry y="26" width="240" height="26" as="geometry"/>
                </mxCell>
                <mxCell id="21" value="" style="line;strokeWidth=1;fillColor=none;align=left;verticalAlign=middle;spacingTop=-1;spacingLeft=3;spacingRight=3;rotatable=0;labelPosition=right;points=[];portConstraint=eastwest;" parent="20" vertex="1">
                    <mxGeometry y="52" width="240" height="8" as="geometry"/>
                </mxCell>
                <mxCell id="23" value="+ initialize()" style="text;strokeColor=none;fillColor=none;align=left;verticalAlign=top;spacingLeft=4;spacingRight=4;overflow=hidden;rotatable=0;points=[[0,0.5],[1,0.5]];portConstraint=eastwest;" parent="20" vertex="1">
                    <mxGeometry y="60" width="240" height="26" as="geometry"/>
                </mxCell>
                <mxCell id="24" value="- no_blink()" style="text;strokeColor=none;fillColor=none;align=left;verticalAlign=top;spacingLeft=4;spacingRight=4;overflow=hidden;rotatable=0;points=[[0,0.5],[1,0.5]];portConstraint=eastwest;" parent="20" vertex="1">
                    <mxGeometry y="86" width="240" height="26" as="geometry"/>
                </mxCell>
                <mxCell id="25" value="+ set_cursor(int x, int y)" style="text;strokeColor=none;fillColor=none;align=left;verticalAlign=top;spacingLeft=4;spacingRight=4;overflow=hidden;rotatable=0;points=[[0,0.5],[1,0.5]];portConstraint=eastwest;" parent="20" vertex="1">
                    <mxGeometry y="112" width="240" height="26" as="geometry"/>
                </mxCell>
                <mxCell id="26" value="+ write_string(char data[])" style="text;strokeColor=none;fillColor=none;align=left;verticalAlign=top;spacingLeft=4;spacingRight=4;overflow=hidden;rotatable=0;points=[[0,0.5],[1,0.5]];portConstraint=eastwest;" parent="20" vertex="1">
                    <mxGeometry y="138" width="240" height="26" as="geometry"/>
                </mxCell>
                <mxCell id="28" value="Monitor Logik" style="shape=note;whiteSpace=wrap;html=1;backgroundOutline=1;darkOpacity=0.05;strokeWidth=1;fillColor=#fff2cc;strokeColor=#d6b656;size=16;" parent="1" vertex="1">
                    <mxGeometry x="490" y="80" width="80" height="50" as="geometry"/>
                </mxCell>
            </root>
        </mxGraphModel>
    </diagram>
</mxfile>